<?xml version="1.0" standalone="no"?>
<!DOCTYPE svg PUBLIC "-//W3C//DTD SVG 20010904//EN"
 "http://www.w3.org/TR/2001/REC-SVG-20010904/DTD/svg10.dtd">
<svg version="1.0" xmlns="http://www.w3.org/2000/svg"
 width="1109.000000pt" height="1014.000000pt" viewBox="0 0 1109.000000 1014.000000"
 preserveAspectRatio="xMidYMid meet">

<g transform="translate(0.000000,1014.000000) scale(0.100000,-0.100000)"
fill="#000000" stroke="none">
<path d="M1255 9395 c-885 -511 -1201 -698 -1203 -712 -2 -11 54 -115 129
-242 116 -196 135 -222 154 -219 33 7 2424 1381 2430 1397 3 7 -55 115 -128
240 -113 192 -136 226 -157 228 -17 1 -428 -231 -1225 -692z"/>
<path d="M8576 10028 c-87 -139 -255 -440 -251 -450 7 -18 2399 -1392 2430
-1396 21 -3 39 23 154 217 72 121 131 229 131 240 0 15 -258 168 -1208 715
-665 383 -1216 696 -1225 696 -9 0 -23 -10 -31 -22z"/>
<path d="M1571 8876 c-668 -388 -1218 -711 -1222 -718 -8 -15 96 -183 118
-192 19 -8 2442 1396 2443 1414 0 19 -101 192 -115 197 -5 2 -556 -314 -1224
-701z"/>
<path d="M8288 9527 c-19 -15 -108 -172 -108 -189 0 -17 2425 -1419 2442
-1413 19 8 127 176 122 190 -3 8 -2236 1312 -2419 1412 -17 10 -25 10 -37 0z"/>
<path d="M1735 8626 c-665 -387 -1213 -710 -1218 -718 -7 -10 6 -38 48 -100
31 -48 63 -89 70 -91 13 -6 2425 1384 2438 1405 14 21 -99 210 -123 207 -3 0
-549 -317 -1215 -703z"/>
<path d="M8124 9282 c-6 -4 -35 -49 -64 -100 -45 -80 -51 -95 -39 -107 18 -17
2418 -1405 2430 -1405 14 0 131 181 126 194 -3 7 -535 320 -1184 696 -1391
807 -1256 731 -1269 722z"/>
<path d="M1860 8375 c-668 -388 -1217 -712 -1218 -721 -4 -18 94 -171 117
-183 12 -6 68 22 201 99 l185 108 25 -30 c17 -20 33 -29 45 -26 17 3 20 12 20
55 l0 52 745 431 744 430 24 -25 c15 -16 32 -25 45 -23 19 3 22 9 22 52 l0 49
190 110 c105 60 192 111 194 113 13 11 -91 204 -114 211 -5 1 -557 -315 -1225
-702z"/>
<path d="M7992 9022 c-24 -24 -102 -165 -102 -184 0 -8 80 -60 183 -119 172
-100 182 -108 185 -138 4 -38 22 -48 60 -32 26 11 69 -12 772 -419 l745 -431
5 -37 c6 -42 31 -54 60 -27 17 16 29 10 218 -99 110 -64 206 -114 213 -111 19
8 119 161 119 182 0 13 -317 202 -1172 698 -644 374 -1193 692 -1220 708 -47
27 -48 27 -66 9z"/>
<path d="M2032 8067 c-667 -386 -1211 -707 -1210 -713 5 -20 733 -1283 740
-1284 3 0 96 52 205 115 159 92 199 111 201 97 7 -39 24 -69 48 -83 25 -16 25
-16 -171 -129 -107 -62 -197 -116 -200 -119 -3 -6 112 -224 231 -439 l35 -63
40 23 c22 12 83 69 137 126 85 92 364 329 496 420 l39 27 16 -24 c47 -68 344
-531 495 -771 364 -578 447 -722 663 -1150 398 -786 466 -1080 353 -1539 -52
-209 -127 -407 -231 -612 -32 -64 -59 -119 -59 -122 0 -3 57 -40 126 -83 81
-49 133 -88 145 -108 11 -17 173 -302 362 -633 293 -517 345 -603 365 -603 12
0 102 39 200 88 168 82 203 95 228 80 50 -32 496 -37 518 -6 7 10 18 13 31 8
11 -4 25 -5 31 -3 7 2 89 -35 184 -82 95 -47 181 -85 193 -83 16 2 101 144
380 633 l358 631 130 78 c71 43 129 81 129 84 0 3 -22 46 -49 96 -92 172 -188
418 -236 605 -99 391 -71 647 122 1106 103 245 383 791 543 1060 179 300 792
1270 825 1304 11 12 35 -3 157 -97 219 -170 326 -261 410 -354 85 -94 153
-147 168 -132 22 22 269 489 262 496 -13 12 -2443 1420 -2446 1416 -12 -16
-266 -481 -264 -483 42 -37 152 -87 305 -140 307 -106 528 -191 526 -201 -5
-27 -523 -1015 -741 -1414 -381 -699 -499 -876 -766 -1148 -136 -139 -271
-256 -408 -354 l-79 -57 -42 16 c-133 51 -486 366 -676 603 -146 181 -279 397
-546 885 -245 447 -778 1467 -787 1503 -4 16 23 26 422 168 254 91 339 127
409 173 18 12 -247 493 -268 485 -11 -4 -1889 -1090 -1996 -1154 l-30 -19 3
44 c3 36 -1 48 -20 68 l-24 24 751 431 c412 237 757 434 766 437 12 5 18 -2
22 -24 7 -33 48 -66 72 -57 22 8 19 68 -5 99 l-20 25 204 117 204 117 -168
291 c-465 808 -578 1001 -586 1003 -5 1 -555 -313 -1222 -699z m591 -132 c219
-76 367 -283 367 -515 0 -149 -54 -276 -164 -386 -103 -103 -245 -164 -381
-164 -66 0 -176 28 -245 62 -84 40 -204 160 -243 240 -162 338 34 722 401 788
70 13 188 2 265 -25z m949 -1793 c577 -1160 1045 -1907 1605 -2565 135 -158
147 -201 85 -322 -47 -93 -215 -231 -373 -305 -155 -72 -342 -90 -436 -42 -56
29 -91 103 -178 377 -37 116 -89 281 -117 368 -56 178 -112 297 -251 538 -202
350 -629 1049 -1010 1651 -148 234 -173 279 -160 289 11 10 17 9 28 -2 28 -29
736 -1168 997 -1604 312 -521 357 -612 448 -895 194 -608 203 -633 248 -673
11 -10 49 -23 85 -30 168 -28 431 83 609 259 68 68 98 124 98 185 0 53 -3 58
-140 219 -222 262 -363 448 -562 745 -340 507 -602 965 -995 1744 -203 400
-212 423 -168 420 6 -1 90 -161 187 -357z m4148 311 c0 -14 -409 -814 -526
-1028 -309 -567 -609 -1048 -897 -1435 -196 -264 -430 -540 -458 -540 -11 0
-19 6 -19 13 1 6 64 86 142 177 497 583 962 1328 1518 2432 176 349 202 396
220 391 11 -3 20 -7 20 -10z m620 -364 c0 -5 -93 -156 -206 -336 -471 -748
-866 -1399 -1041 -1718 -98 -178 -110 -211 -293 -790 -77 -243 -111 -309 -172
-341 -30 -15 -32 -15 -45 2 -12 16 -10 20 20 36 62 31 85 84 222 523 53 171
110 344 126 385 73 181 389 716 1031 1743 270 432 333 526 344 516 8 -6 14
-15 14 -20z m-2580 -2993 c252 -38 481 -151 667 -328 113 -108 191 -214 258
-352 91 -184 128 -342 128 -546 0 -204 -37 -362 -128 -546 -273 -557 -914
-826 -1500 -630 -199 67 -349 162 -498 315 -147 151 -232 294 -295 491 -43
135 -56 226 -56 375 1 330 118 616 351 856 148 153 299 248 497 314 186 63
382 80 576 51z"/>
<path d="M2311 7904 c-154 -41 -279 -158 -341 -319 -31 -80 -34 -233 -6 -315
72 -213 260 -350 481 -350 248 0 454 176 496 423 41 245 -124 499 -366 562
-73 19 -192 18 -264 -1z m314 -118 c306 -151 305 -581 -1 -733 -249 -123 -536
27 -585 306 -29 162 60 340 210 420 79 42 121 51 219 47 72 -3 94 -9 157 -40z"/>
<path d="M5370 2921 c-342 -73 -620 -331 -727 -677 -25 -83 -27 -101 -27 -269
0 -167 2 -186 27 -268 101 -329 335 -563 664 -664 82 -25 101 -27 268 -27 168
0 186 2 269 27 322 99 568 345 661 663 36 121 45 318 20 449 -37 198 -120 352
-269 501 -147 148 -303 232 -495 268 -110 21 -283 20 -391 -3z"/>
<path d="M7752 8592 c-44 -75 -212 -368 -375 -649 l-295 -513 183 -105 183
-106 -2 -51 c-1 -65 20 -75 63 -29 l28 30 749 -430 c412 -237 751 -432 753
-435 2 -2 -2 -10 -8 -18 -18 -22 -10 -90 11 -94 17 -3 44 19 63 53 10 16 30 7
212 -99 111 -64 205 -116 210 -116 8 0 736 1262 740 1284 2 8 -2234 1310
-2402 1398 l-34 18 -79 -138z m1067 -699 c177 -58 310 -202 357 -386 22 -82
14 -229 -15 -312 -47 -132 -148 -244 -276 -305 -170 -82 -345 -77 -516 16 -66
36 -177 155 -211 226 -105 216 -65 463 101 629 152 152 354 200 560 132z"/>
<path d="M8525 7866 c-254 -63 -424 -326 -372 -577 33 -165 127 -288 275 -362
l85 -42 132 0 131 0 86 42 c152 76 254 213 280 377 54 348 -274 647 -617 562z
m268 -106 c174 -65 288 -259 259 -438 -16 -96 -61 -180 -132 -245 -72 -67
-145 -98 -251 -105 -128 -8 -236 35 -322 127 -211 226 -107 592 193 676 71 20
177 13 253 -15z"/>
<path d="M3836 1768 c-8 -13 -44 -74 -80 -135 l-65 -113 39 -20 39 -20 21 35
c12 19 24 35 27 35 3 0 21 -9 40 -21 l33 -21 -20 -34 c-12 -18 -19 -37 -16
-42 2 -4 28 -19 56 -32 l52 -24 27 33 c27 33 28 34 54 16 32 -21 32 -22 7 -60
-25 -38 -25 -40 4 -53 27 -12 29 -10 101 125 l28 52 -49 77 c-45 70 -58 83
-149 141 -143 91 -132 87 -149 61z"/>
<path d="M7120 1716 c-108 -69 -118 -78 -164 -150 l-49 -77 28 -52 c72 -135
74 -137 101 -125 29 13 29 15 4 53 -25 38 -25 39 7 60 26 18 27 17 54 -16 l27
-33 52 24 c28 13 54 28 56 32 3 5 -4 24 -16 42 l-20 34 33 21 c19 12 37 21 40
21 3 0 15 -16 27 -35 l21 -35 39 20 39 20 -71 123 c-39 67 -76 127 -82 134 -8
9 -38 -5 -126 -61z"/>
<path d="M3795 1410 c25 -27 141 -90 167 -90 30 0 17 11 -77 65 -87 49 -121
59 -90 25z"/>
<path d="M7205 1385 c-94 -54 -107 -65 -77 -65 26 0 142 63 167 90 31 34 -3
24 -90 -25z"/>
<path d="M5150 506 c-238 -111 -270 -127 -270 -134 0 -4 30 -65 66 -135 46
-89 69 -125 77 -119 7 4 25 16 40 26 27 17 28 18 13 41 -23 35 -20 42 24 65
l39 20 17 -32 c9 -18 18 -34 19 -36 4 -4 105 58 105 64 0 3 -7 21 -15 41 -8
20 -14 37 -13 38 2 0 15 6 30 13 25 10 29 9 45 -16 9 -15 18 -29 19 -31 2 -2
14 6 28 16 l25 20 -60 99 c-34 55 -64 102 -68 106 -4 4 -58 -16 -121 -46z"/>
<path d="M5756 453 l-65 -106 25 -20 c14 -10 26 -18 28 -16 1 2 10 16 19 31
16 25 20 26 45 16 15 -7 28 -13 30 -14 2 -1 -4 -19 -12 -39 -9 -21 -16 -39
-16 -40 0 -5 102 -66 105 -63 1 2 10 18 19 36 l17 32 39 -20 c44 -23 47 -30
24 -65 -15 -23 -14 -24 13 -41 15 -10 33 -22 39 -26 8 -6 33 31 78 118 37 70
65 131 64 136 -3 8 -321 164 -370 181 -13 5 -31 -17 -82 -100z"/>
<path d="M5260 204 c-36 -25 -76 -44 -91 -44 -15 0 -32 -7 -39 -15 -11 -13 -7
-15 26 -15 27 0 55 11 101 41 56 37 98 80 76 78 -4 0 -37 -20 -73 -45z"/>
<path d="M5759 231 c6 -10 39 -37 74 -60 46 -30 74 -41 101 -41 33 0 37 2 26
15 -7 8 -24 15 -39 15 -14 0 -56 20 -93 45 -75 50 -83 53 -69 26z"/>
</g>
</svg>
